<?xml version="1.0" encoding="UTF-8" standalone="no"?>
<!-- Created with Inkscape (http://www.inkscape.org/) -->

<svg
   version="1.1"
   id="svg1"
   width="849.84003"
   height="421.56"
   viewBox="0 0 849.84003 421.56"
   sodipodi:docname="elanco_logo.eps"
   xmlns:inkscape="http://www.inkscape.org/namespaces/inkscape"
   xmlns:sodipodi="http://sodipodi.sourceforge.net/DTD/sodipodi-0.dtd"
   xmlns="http://www.w3.org/2000/svg"
   xmlns:svg="http://www.w3.org/2000/svg">
  <defs
     id="defs1" />
  <sodipodi:namedview
     id="namedview1"
     pagecolor="#ffffff"
     bordercolor="#000000"
     borderopacity="0.25"
     inkscape:showpageshadow="2"
     inkscape:pageopacity="0.0"
     inkscape:pagecheckerboard="0"
     inkscape:deskcolor="#d1d1d1">
    <inkscape:page
       x="0"
       y="0"
       inkscape:label="1"
       id="page1"
       width="849.84003"
       height="421.56"
       margin="0"
       bleed="0" />
  </sodipodi:namedview>
  <g
     id="g1"
     inkscape:groupmode="layer"
     inkscape:label="1">
    <g
       id="group-R5">
      <path
         id="path2"
         d="M 6373.83,3161.67 0,2042.91 366.016,0 6373.83,1062.95 v 2098.72"
         style="fill:#2d6dbe;fill-opacity:1;fill-rule:nonzero;stroke:none"
         transform="matrix(0.13333333,0,0,-0.13333333,0,421.56)" />
      <path
         id="path3"
         d="M 394.578,864.441 632.023,1982.54 h 649.687 l -70.58,-235.78 H 869.414 l -40.105,-187.71 h 279.171 l -48.16,-227.77 H 781.203 L 733.098,1103.4 H 1116.48 L 1065.13,864.441 H 394.578"
         style="fill:#ffffff;fill-opacity:1;fill-rule:nonzero;stroke:none"
         transform="matrix(0.13333333,0,0,-0.13333333,0,421.56)" />
      <path
         id="path4"
         d="m 1345.85,1995.4 290.36,48.05 c 3.2,-40.06 -6.38,-125.08 -24.05,-206.91 l -131.51,-614.35 c -30.53,-145.99 -33.72,-184.57 28.87,-184.57 9.57,0 19.24,1.67 30.43,4.86 L 1548,869.191 c -40.1,-14.429 -109.12,-25.621 -186.09,-25.621 -235.83,0 -214.97,121.84 -179.67,287.12 l 120.32,564.72 c 41.67,192.48 44.91,253.4 43.29,299.99"
         style="fill:#ffffff;fill-opacity:1;fill-rule:nonzero;stroke:none"
         transform="matrix(0.13333333,0,0,-0.13333333,0,421.56)" />
      <path
         id="path5"
         d="m 2040.9,1506.12 c -20.86,0 -60.97,1.57 -101.08,-45.02 -59.34,-68.91 -94.64,-230.91 -94.64,-333.6 0,-56.16 16.05,-80.17 54.54,-80.17 33.72,0 91.45,57.73 97.88,84.93 l 77.02,362.57 c -9.67,8.05 -24.1,11.29 -33.72,11.29 m 296.79,-69.02 -62.54,-298.41 c -6.43,-27.2 -4.86,-84.97 32.06,-125.13 l -226.2,-181.29 c -33.68,17.73 -57.73,67.351 -62.54,97.941 -36.92,-38.59 -118.75,-91.512 -215.02,-91.512 -168.42,0 -239.01,105.942 -239.01,282.371 0,176.47 70.59,359.33 178.1,466.83 94.64,94.65 195.71,125.13 341.71,125.13 113.88,0 255.06,-19.29 315.98,-49.73 -24,-57.78 -48.11,-157.18 -62.54,-226.2"
         style="fill:#ffffff;fill-opacity:1;fill-rule:nonzero;stroke:none"
         transform="matrix(0.13333333,0,0,-0.13333333,0,421.56)" />
      <path
         id="path6"
         d="m 2966.54,1713.03 c 206.91,0 227.82,-117.13 202.15,-237.44 L 3038.7,864.43 h -279.07 l 112.26,529.32 c 14.44,64.21 6.38,93.08 -40.1,93.08 -44.92,0 -80.21,-22.43 -115.51,-77.02 L 2599.15,864.43 h -279.12 l 110.65,521.32 c 25.72,125.13 35.35,198.91 22.48,280.79 l 247.07,46.49 c 6.43,-27.29 12.86,-56.16 14.43,-89.78 64.16,56.06 160.42,89.78 251.88,89.78"
         style="fill:#ffffff;fill-opacity:1;fill-rule:nonzero;stroke:none"
         transform="matrix(0.13333333,0,0,-0.13333333,0,421.56)" />
      <path
         id="path7"
         d="m 3446.25,843.57 c -231.07,0 -343.38,147.551 -283.98,426.67 59.35,280.79 229.39,442.79 473.21,442.79 118.75,0 182.96,-30.48 250.31,-97.83 l -163.66,-168.43 c -24.06,33.63 -65.78,60.92 -104.27,60.92 -64.16,0 -112.26,-51.3 -147.56,-219.77 -35.35,-168.43 -32.1,-237.45 48.11,-237.45 62.54,0 120.32,30.49 166.85,73.78 l 83.4,-163.559 C 3661.16,872.43 3547.27,843.57 3446.25,843.57"
         style="fill:#ffffff;fill-opacity:1;fill-rule:nonzero;stroke:none"
         transform="matrix(0.13333333,0,0,-0.13333333,0,421.56)" />
      <path
         id="path8"
         d="m 4063.01,1114.67 c 0,-51.35 17.67,-75.36 62.54,-75.36 115.56,0 163.66,348.04 163.66,404.2 0,56.21 -20.86,75.35 -62.59,75.35 -115.5,0 -163.61,-346.42 -163.61,-404.19 m 521.38,304.84 c 0,-216.63 -120.32,-575.959 -506.95,-575.959 -195.72,0 -306.41,107.551 -306.41,298.409 0,213.34 115.56,571.05 506.94,571.05 173.24,0 306.42,-85.02 306.42,-293.5"
         style="fill:#ffffff;fill-opacity:1;fill-rule:nonzero;stroke:none"
         transform="matrix(0.13333333,0,0,-0.13333333,0,421.56)" />
      <path
         id="path9"
         d="m 6170.72,897.078 h 32.97 v -88.316 h 14.94 v 88.316 h 32.91 v 13.461 h -80.82 v -13.461"
         style="fill:#100f0d;fill-opacity:1;fill-rule:nonzero;stroke:none"
         transform="matrix(0.13333333,0,0,-0.13333333,0,421.56)" />
      <path
         id="path10"
         d="m 6288.26,808.75 v 92.059 h 0.7 l 28.06,-92.059 h 12.05 l 28.86,92.059 h 0.61 V 808.75 h 14.99 v 101.781 h -26.94 l -22.43,-75.551 h -0.71 l -24.01,75.551 h -26.12 V 808.75 h 14.94"
         style="fill:#100f0d;fill-opacity:1;fill-rule:nonzero;stroke:none"
         transform="matrix(0.13333333,0,0,-0.13333333,0,421.56)" />
    </g>
  </g>
</svg>
